<?xml version="1.0" encoding="utf-8"?>
<!-- Generator: Adobe Illustrator 15.0.0, SVG Export Plug-In . SVG Version: 6.00 Build 0)  -->
<!DOCTYPE svg PUBLIC "-//W3C//DTD SVG 1.1//EN" "http://www.w3.org/Graphics/SVG/1.1/DTD/svg11.dtd">
<svg version="1.1" id="Layer_1" xmlns="http://www.w3.org/2000/svg" xmlns:xlink="http://www.w3.org/1999/xlink" x="0px" y="0px"
	 width="595.28px" height="841.89px" viewBox="0 0 595.28 841.89" enable-background="new 0 0 595.28 841.89" xml:space="preserve">
<g>
	<path fill="#929497" d="M80.839,97.954l5.996-3.779c0.055-0.033,0.03-0.117-0.034-0.117h-5.928c-0.123,0-0.222,0.099-0.222,0.221
		v3.572C80.651,97.947,80.758,98.005,80.839,97.954z"/>
	<path fill="#929497" d="M80.873,88.874h5.986c0.063,0,0.088-0.083,0.034-0.118l-6.054-3.815c-0.081-0.052-0.188,0.007-0.188,0.104
		v3.609C80.651,88.775,80.75,88.874,80.873,88.874z"/>
	<path fill="#929497" d="M92.004,95.518l-7.66,4.829c-0.055,0.034-0.031,0.118,0.033,0.118h7.592c0.123,0,0.221-0.1,0.221-0.221
		v-4.623C92.191,95.526,92.085,95.467,92.004,95.518z"/>
	<path fill="#929497" d="M105.282,100.347l-7.66-4.829c-0.081-0.051-0.187,0.008-0.187,0.104v4.623c0,0.121,0.099,0.221,0.221,0.221
		h7.592C105.313,100.465,105.337,100.381,105.282,100.347z"/>
	<path fill="#929497" d="M108.788,84.94l-6.055,3.815c-0.054,0.035-0.029,0.118,0.035,0.118h5.986c0.122,0,0.222-0.099,0.222-0.221
		v-3.609C108.976,84.947,108.869,84.888,108.788,84.94z"/>
	<path fill="#929497" d="M92.004,87.375c0.081,0.051,0.187-0.007,0.187-0.103v-4.585c0-0.123-0.099-0.221-0.221-0.221h-7.534
		c-0.064,0-0.088,0.084-0.035,0.118L92.004,87.375z"/>
	<path fill="#929497" d="M97.623,87.375l7.603-4.792c0.053-0.034,0.029-0.118-0.035-0.118h-7.534c-0.123,0-0.221,0.099-0.221,0.221
		v4.585C97.436,87.368,97.542,87.426,97.623,87.375z"/>
	<path fill="#929497" d="M108.976,94.278c0-0.122-0.1-0.221-0.222-0.221h-5.928c-0.064,0-0.088,0.084-0.034,0.117l5.996,3.779
		c0.081,0.052,0.188-0.007,0.188-0.104V94.278z"/>
	<path fill="#929497" d="M108.758,100.465c0.12,0,0.217-0.098,0.217-0.217v-0.689c0-0.139-0.072-0.266-0.188-0.34l-8.004-5.045
		c-0.123-0.076-0.265-0.117-0.409-0.117h-1.421h-0.358c-0.064,0-0.089,0.084-0.034,0.117l9.797,6.176
		C108.478,100.424,108.617,100.465,108.758,100.465z"/>
	<path fill="#929497" d="M80.829,82.998l9.136,5.758c0.122,0.077,0.264,0.118,0.408,0.118h0.358h1.403
		c0.033,0,0.058-0.026,0.058-0.057c0-0.036-0.018-0.069-0.048-0.088l-9.749-6.145c-0.123-0.077-0.264-0.118-0.409-0.118h-1.123
		c-0.116,0-0.21,0.094-0.21,0.21C80.651,82.807,80.719,82.928,80.829,82.998z"/>
	<path fill="#929497" d="M80.869,100.465c0.141,0,0.281-0.041,0.4-0.115l9.797-6.176c0.054-0.033,0.03-0.117-0.035-0.117h-0.358
		h-1.421c-0.144,0-0.286,0.041-0.409,0.117l-8.004,5.045c-0.116,0.074-0.188,0.201-0.188,0.34v0.689
		C80.651,100.368,80.748,100.465,80.869,100.465z"/>
	<path fill="#929497" d="M97.493,88.874h1.402h0.358c0.145,0,0.287-0.041,0.41-0.118l9.134-5.758c0.11-0.07,0.178-0.191,0.178-0.322
		c0-0.116-0.094-0.21-0.21-0.21h-1.124c-0.145,0-0.286,0.041-0.409,0.118l-9.749,6.145c-0.03,0.019-0.048,0.052-0.048,0.088
		C97.436,88.848,97.46,88.874,97.493,88.874z"/>
	<path fill="#929497" d="M80.873,92.938h8.503h1.692h1.384h0.488h0.272c0.062,0,0.111,0.049,0.111,0.11v1.279v5.917
		c0,0.121,0.099,0.221,0.221,0.221h2.538c0.122,0,0.221-0.1,0.221-0.221v-5.917v-1.279c0-0.062,0.049-0.11,0.111-0.11h0.272h0.488
		h1.384h1.692h8.503c0.123,0,0.222-0.1,0.222-0.221v-2.503c0-0.123-0.099-0.222-0.222-0.222h-8.552h-2.588h-0.488h-0.711
		c-0.062,0-0.111-0.049-0.111-0.11v-0.244v-1.066v-5.885c0-0.123-0.099-0.221-0.221-0.221h-2.538c-0.122,0-0.221,0.099-0.221,0.221
		v5.885v1.066v0.244c0,0.062-0.049,0.11-0.111,0.11h-0.711h-0.488h-2.588h-8.552c-0.123,0-0.222,0.099-0.222,0.222v2.503
		C80.651,92.838,80.75,92.938,80.873,92.938z"/>
</g>
<path fill="#929497" d="M141.29,83.065l4.752,4.729c0,0-0.402-0.274-1.139-0.274c-0.123,0-3.305,0-3.305,0s0-3.181,0-3.317
	C141.599,83.416,141.29,83.065,141.29,83.065z M133.565,84.604c-0.078,0.371-0.145,0.838-0.199,1.316
	c0.244-0.117,0.492-0.222,0.734-0.309C133.925,85.294,133.747,84.956,133.565,84.604z M146.649,89.19v12.476
	c0,0.441-0.357,0.799-0.799,0.799h-13.981c-0.443,0-0.8-0.357-0.801-0.799l0.001-0.398l-0.001-17.976
	c0-0.441,0.357-0.827,0.801-0.827h8.023c0.144,0,0.707,0.535,0.707,1.261v4.209c0,0.331,0.269,0.6,0.599,0.6h4.188
	C146.085,88.535,146.649,89.054,146.649,89.19z M135.181,90.128v0.879h6.983v-0.879H135.181z M135.304,84.793
	c0.048,0.137,0.176,0.224,0.312,0.224c0.035,0,0.071-0.005,0.105-0.017c0.211-0.07,0.43-0.142,0.645-0.21
	c0.242,0.854,0.334,0.933,0.397,0.985c0.067,0.055,0.155,0.084,0.239,0.084c0.09,0,0.176-0.032,0.234-0.102
	c0.113-0.135,0.116-0.311-0.02-0.424c-0.044-0.077-0.134-0.363-0.238-0.735c0.363-0.109,0.645-0.187,0.729-0.194
	c0.18-0.011,0.318-0.168,0.306-0.349c-0.013-0.181-0.165-0.326-0.351-0.306c-0.139,0.01-0.48,0.102-0.855,0.214
	c-0.057-0.219-0.113-0.443-0.164-0.658c-0.041-0.171-0.213-0.28-0.387-0.235c-0.171,0.042-0.276,0.214-0.234,0.386
	c0.062,0.262,0.12,0.492,0.174,0.697c-0.287,0.091-0.542,0.176-0.684,0.224C135.341,84.434,135.249,84.622,135.304,84.793z
	 M132.251,87.071c0.064,0.068,0.148,0.102,0.234,0.102c0.049,0,0.092-0.031,0.137-0.054c-0.035,0.665-0.031,1.22,0.031,1.432
	c0.043,0.139,0.169,0.229,0.307,0.229c0.03,0,0.061-0.005,0.092-0.013c0.168-0.051,0.265-0.228,0.215-0.398
	c-0.057-0.193-0.039-0.895,0.025-1.689c0.35-0.198,0.756-0.377,1.128-0.504c0.438,0.743,0.843,1.307,1.192,1.517
	c0.15,0.09,0.346,0.042,0.438-0.109c0.093-0.15,0.043-0.348-0.107-0.438c-0.234-0.142-0.558-0.605-0.896-1.167
	c0.1-0.071,0.152-0.194,0.126-0.321c-0.036-0.173-0.206-0.288-0.376-0.249c-0.021,0.005-0.045,0.011-0.067,0.016
	c-0.339-0.608-0.667-1.255-0.905-1.726l-0.037-0.074c-0.053-0.105-0.158-0.172-0.275-0.175c-0.117-0.04-0.229,0.058-0.287,0.158
	c-0.239,0.413-0.435,1.585-0.539,2.694c-0.158,0.104-0.303,0.209-0.417,0.316C132.139,86.739,132.13,86.942,132.251,87.071z
	 M132.765,90.384c1.1-0.77,5.435-3.082,6.43-3.469c0.164-0.064,0.245-0.25,0.182-0.413c-0.065-0.166-0.251-0.247-0.416-0.183
	c-1.051,0.412-5.416,2.739-6.562,3.54c-0.145,0.102-0.18,0.301-0.078,0.446c0.062,0.089,0.161,0.137,0.263,0.137
	C132.644,90.442,132.708,90.423,132.765,90.384z M138.511,99.407h-4.863v0.879h4.863V99.407z M143.714,97.088h-10.066v0.877h10.066
	V97.088z M143.714,94.768h-10.066v0.879h10.066V94.768z M143.714,92.448h-10.066v0.878h10.066V92.448z"/>
<path fill-rule="evenodd" clip-rule="evenodd" fill="#929497" d="M169.978,91.043h1.079c0.308,0,0.584,0.254,0.559,0.561
	l-0.023,0.281l3.697-1.875c-0.073-1.944-0.059-3.481,0.126-3.991c0.655-1.803,2.213-2.542,2.217-2.544l0.173-0.084l0.172,0.084
	c0.004,0.002,1.563,0.741,2.217,2.544c0.181,0.498,0.199,1.97,0.133,3.847l3.979,2.02l-0.022-0.281
	c-0.025-0.307,0.252-0.561,0.559-0.561h1.079c0.307,0,0.609,0.258,0.56,0.561l-0.209,1.276l2.963,1.503l0.307,0.155l-0.11,0.325
	l-0.587,1.73l-0.107,0.314l-0.327-0.048l-8.426-1.272c-0.124,1.631-0.254,3.195-0.363,4.418l2.622,1.228l0.32,0.149l-0.114,0.334
	l-0.38,1.119l-0.108,0.32l-0.335-0.059l-2.253-0.407l-0.213,0.093l-1.248,0.537l-0.161,0.069l-0.162-0.075l-1.149-0.538l-0.189-0.09
	l-2.276,0.411l-0.335,0.059l-0.109-0.32l-0.379-1.119l-0.113-0.334l0.32-0.149l2.632-1.232c-0.107-1.212-0.238-2.755-0.359-4.369
	l-8.141,1.229l-0.326,0.048l-0.107-0.314l-0.588-1.73l-0.109-0.325l0.307-0.155l2.963-1.503l-0.21-1.276
	C169.369,91.301,169.669,91.043,169.978,91.043L169.978,91.043z"/>
<g>
	<g>
		<path fill="#929497" d="M215.621,99.879c-0.068,0-0.139,0-0.21,0c-5.881,0-5.718-0.594-6.051-1.025
			c-0.373-0.551-0.222-2.762,0.37-3.244c0.146-0.182,0.442-0.404,0.809-0.602c0.873-0.472,2.338-0.966,2.545-1.205
			c0.093-0.107,0.316-0.482,0.251-0.981c-0.017-0.092-0.042-0.188-0.078-0.289c-0.231-0.437-0.376-0.961-0.476-1.536
			c-0.033,0.006-0.074,0.011-0.119,0.01c-0.002,0-0.004,0-0.007,0c-0.001,0-0.002,0-0.003,0c-0.051,0-0.108-0.005-0.172-0.022
			c-0.237-0.062-0.322-0.475-0.322-0.475s-0.203-0.645-0.237-0.764s-0.136-0.373-0.102-0.645c0.03-0.242,0.211-0.365,0.367-0.363
			c0.024-0.001,0.047,0.001,0.069,0.006c0.05,0.011,0.104,0.042,0.158,0.084c0.004,0.003,0.009,0.006,0.014,0.008
			c0.062,0.009,0.13-0.062,0.118-0.126c-0.088-0.49-0.137-0.987-0.137-1.468c0-1.654,1.342-2.996,2.996-2.996
			c0.002,0,0.004,0,0.006,0s0.004,0,0.007,0c1.654,0,2.995,1.341,2.995,2.996c0,0.481-0.048,0.979-0.137,1.468
			c-0.012,0.064,0.057,0.136,0.119,0.126c0.005-0.002,0.009-0.005,0.014-0.008c0.054-0.042,0.107-0.073,0.157-0.084
			c0.022-0.005,0.046-0.007,0.07-0.006c0.155-0.002,0.337,0.121,0.367,0.363c0.033,0.271-0.068,0.526-0.103,0.645
			s-0.237,0.764-0.237,0.764s-0.085,0.414-0.322,0.475c-0.062,0.017-0.12,0.022-0.172,0.022c-0.001,0-0.002,0-0.002,0
			c-0.003,0-0.005,0-0.008,0c-0.045,0-0.085-0.004-0.119-0.01c-0.099,0.575-0.243,1.099-0.475,1.536
			c-0.037,0.1-0.062,0.197-0.079,0.289c-0.065,0.5,0.158,0.874,0.251,0.981c0.142,0.164,0.87,0.445,1.596,0.758
			c-0.557,0.236-1.164,0.497-1.648,0.759c-0.513,0.277-0.933,0.589-1.183,0.88C215.818,96.829,215.511,98.577,215.621,99.879z"/>
		<path fill="#929497" d="M238.993,96.188c-0.017-0.041-0.047-0.089-0.091-0.139c-0.125-0.156-0.38-0.348-0.695-0.519
			c-0.752-0.406-2.014-0.831-2.192-1.038c-0.08-0.092-0.272-0.414-0.216-0.846c0.014-0.078,0.036-0.162,0.067-0.248
			c0.05-0.094,0.095-0.193,0.136-0.295c2.124-0.292,2.83-1.041,2.883-1.51c-1.428-0.419-1.479-1.905-1.607-3.336
			c-0.15-1.68-1.461-3.052-3.264-3.052c-1.802,0-2.927,1.396-3.263,3.052c-0.282,1.388-0.256,3.271-1.71,3.271
			c0.026,0.505,0.745,1.286,2.98,1.58c0.04,0.101,0.085,0.198,0.134,0.291c0.031,0.085,0.054,0.169,0.067,0.248
			c0.056,0.432-0.137,0.754-0.216,0.846c-0.105,0.121-0.584,0.318-1.113,0.543c0.253,0.115,0.496,0.232,0.714,0.35
			c0.516,0.279,0.938,0.594,1.188,0.887c0.567,0.526,0.869,2.166,0.839,3.453c0.123,0,0.248,0,0.377,0
			c5.065,0,4.924-0.51,5.211-0.882C239.43,98.401,239.446,97.37,238.993,96.188z"/>
	</g>
	<path fill="#929497" d="M231.869,97.05c-0.185-0.229-0.561-0.513-1.025-0.763c-1.106-0.598-2.966-1.225-3.229-1.529
		c-0.117-0.135-0.4-0.609-0.318-1.244c0.021-0.116,0.054-0.238,0.1-0.366c0.294-0.553,0.478-1.219,0.604-1.948
		c0.042,0.008,0.094,0.014,0.15,0.014c0.003,0,0.006,0,0.009,0c0,0,0.003,0,0.004,0c0.065,0,0.138-0.007,0.218-0.028
		c0.301-0.079,0.408-0.603,0.408-0.603s0.259-0.818,0.302-0.968c0.043-0.151,0.173-0.474,0.129-0.818
		c-0.038-0.307-0.268-0.463-0.466-0.46c-0.03,0-0.06,0.002-0.088,0.008c-0.017,0.004-0.033,0.009-0.05,0.016
		c-0.044-0.653,0.127-1.257,0.127-1.825c0-2.245-1.826-4.071-4.077-4.071h-0.01c-2.245,0-4.071,1.826-4.071,4.071
		c0,0.575,0.178,1.195,0.113,1.821c-0.012-0.004-0.024-0.009-0.036-0.012c-0.028-0.006-0.058-0.009-0.088-0.008
		c-0.198-0.003-0.428,0.154-0.466,0.46c-0.043,0.344,0.086,0.667,0.129,0.818c0.043,0.15,0.301,0.968,0.301,0.968
		s0.108,0.524,0.409,0.603c0.08,0.021,0.152,0.028,0.218,0.028h0.004c0.003,0,0.006,0,0.009,0c0.057,0,0.108-0.005,0.15-0.014
		c0.126,0.729,0.31,1.395,0.604,1.948c0.046,0.127,0.078,0.25,0.1,0.366c0.082,0.635-0.201,1.109-0.318,1.244
		c-0.263,0.305-2.121,0.932-3.229,1.529c-0.465,0.25-0.84,0.533-1.025,0.763c-0.751,0.612-0.942,3.417-0.47,4.116
		c0.423,0.547,0.216,1.299,7.675,1.299s7.252-0.752,7.674-1.299C232.77,100.467,232.461,97.518,231.869,97.05z"/>
</g>
<g>
	<g>
		<g>
			<path fill="#929497" d="M84.642,138.872c-5.321-5.322-5.321-13.98,0-19.303c5.322-5.321,13.98-5.321,19.303,0
				c5.321,5.322,5.321,13.98,0,19.303C98.623,144.192,89.964,144.192,84.642,138.872z M101.704,121.809
				c-4.086-4.085-10.735-4.085-14.82,0c-4.087,4.087-4.087,10.734,0,14.82c4.085,4.088,10.734,4.088,14.82,0
				C105.79,132.543,105.79,125.896,101.704,121.809z"/>
		</g>
	</g>
	<g>
		<g>
			<rect x="92.756" y="134.172" fill="#929497" width="3.083" height="3.084"/>
			<path fill="#929497" d="M98.119,122.499c-0.954-0.873-2.234-1.314-3.806-1.314c-1.488,0-2.71,0.413-3.632,1.229
				c-0.923,0.814-1.485,1.988-1.668,3.488l-0.062,0.506l2.859,0.34l0.076-0.482c0.143-0.912,0.434-1.578,0.866-1.98
				c0.424-0.398,0.945-0.592,1.592-0.592c0.671,0,1.219,0.217,1.676,0.66c0.455,0.441,0.674,0.932,0.674,1.5
				c0,0.303-0.071,0.574-0.215,0.829c-0.11,0.192-0.394,0.556-1.123,1.198c-0.654,0.578-1.1,1.01-1.363,1.325
				c-0.364,0.438-0.634,0.885-0.799,1.321c-0.225,0.574-0.337,1.258-0.337,2.032c0,0.124,0.003,0.311,0.01,0.56l0.015,0.492h2.737
				l0.009-0.498c0.016-0.85,0.082-1.258,0.134-1.451c0.071-0.262,0.18-0.495,0.324-0.691c0.11-0.152,0.389-0.462,1.089-1.082
				c0.934-0.826,1.55-1.521,1.884-2.123c0.344-0.618,0.519-1.303,0.519-2.033C99.577,124.471,99.087,123.383,98.119,122.499z"/>
		</g>
	</g>
</g>
<g>
	<path fill="#929497" d="M143.603,137.236c-2.347,0-13.166,0-13.569,0c-0.281,0-0.396-0.188-0.396-0.447c0-2.98,0-13.051,0-13.43
		c0-0.263,0.046-0.401,0.343-0.401c2.411,0,9.922,0,10.109,0c0.228,0,0.575-0.087,0.77-0.226c0.752-0.535,2.193-1.736,2.357-1.869
		c0.18-0.144,0.096-0.406-0.111-0.406c-0.368,0-15.602,0-15.602,0c-0.204,0-0.368,0.164-0.368,0.368v18.544
		c0,0.203,0.165,0.367,0.368,0.367h18.544c0.203,0,0.369-0.164,0.369-0.367c0,0,0-9.364,0-9.68c0-0.312-0.259-0.316-0.433-0.142
		c-0.12,0.119-1.096,1.073-1.703,1.687c-0.283,0.285-0.367,0.629-0.367,0.872c0,0.188,0,3.424,0,4.839
		C143.916,137.172,143.829,137.236,143.603,137.236z"/>
	<path fill="#929497" d="M154.682,116.806c-0.069-0.096-0.241-0.28-0.339-0.387c-0.146-0.163-0.234-0.256-0.434-0.442
		c-0.087-0.08-0.277-0.109-0.436,0.028l-16.769,12.989c0,0-4.489-3.513-4.561-3.564c-0.104-0.076-0.248-0.151-0.373-0.056
		c-0.076,0.06-0.238,0.179-0.352,0.277c-0.073,0.062-0.206,0.174-0.269,0.233c-0.138,0.132-0.083,0.275,0.022,0.465
		c0.109,0.197,4.667,8.078,4.748,8.21c0.14,0.23,0.458,0.365,0.676,0.371c0.208,0.004,0.51-0.078,0.74-0.281
		c0.148-0.132,17.379-17.311,17.379-17.311C154.937,117.096,154.786,116.945,154.682,116.806z"/>
</g>
<g>
	<path fill="#929497" d="M199.522,119.027h-22.229c-1.222,0-2.223,1.001-2.223,2.223v18.524c0,1.223,1.001,2.223,2.223,2.223h22.229
		c1.223,0,2.222-1,2.222-2.223V121.25C201.744,120.028,200.745,119.027,199.522,119.027z M186.056,120.509
		c0.685,0,1.238,0.554,1.238,1.239c0,0.685-0.554,1.239-1.238,1.239s-1.239-0.555-1.239-1.239
		C184.817,121.063,185.372,120.509,186.056,120.509z M182.665,120.509c0.685,0,1.239,0.554,1.239,1.239
		c0,0.685-0.555,1.239-1.239,1.239s-1.239-0.555-1.239-1.239C181.425,121.063,181.98,120.509,182.665,120.509z M179.274,120.509
		c0.685,0,1.239,0.554,1.239,1.239c0,0.685-0.555,1.239-1.239,1.239s-1.24-0.555-1.24-1.239
		C178.034,121.063,178.589,120.509,179.274,120.509z M199.522,139.774h-22.229v-14.819h22.229V139.774z"/>
	<rect x="180.256" y="127.918" fill="#929497" width="16.302" height="1.482"/>
	<rect x="180.256" y="130.882" fill="#929497" width="16.302" height="1.481"/>
	<rect x="180.256" y="133.846" fill="#929497" width="7.409" height="1.482"/>
</g>
<g>
	<path fill="#929497" d="M103.603,165.774c-2.843-2.419-6.619-3.752-10.635-3.752c-4.007,0-7.781,1.333-10.626,3.752
		c-2.891,2.457-4.482,5.74-4.482,9.245c0,2.229,0.675,4.421,1.957,6.37l-2.31,5.582c-0.139,0.336-0.073,0.722,0.168,0.992
		c0.184,0.203,0.44,0.314,0.705,0.314c0.087,0,0.176-0.012,0.263-0.037l6.793-1.969c2.3,1.141,4.896,1.741,7.532,1.741
		c4.015,0,7.791-1.335,10.636-3.758c2.887-2.458,4.475-5.739,4.475-9.236C108.078,171.514,106.49,168.229,103.603,165.774z
		 M92.968,186.124c-2.463,0-4.882-0.588-6.994-1.699c-0.138-0.072-0.288-0.109-0.441-0.109c-0.088,0-0.177,0.014-0.263,0.037
		l-5.266,1.527l1.754-4.24c0.125-0.303,0.086-0.647-0.105-0.913c-1.245-1.734-1.903-3.708-1.903-5.707
		c0-6.124,5.931-11.106,13.219-11.106c7.29,0,13.221,4.982,13.221,11.106C106.188,181.142,100.258,186.124,92.968,186.124z"/>
	<path fill="#929497" d="M85.432,170.467v5.648h2.586c0.021,1.728-0.545,3.09-1.636,4.166l1.373,1.646
		c1.759-1.707,3.354-2.966,3.88-5.812h0.04c0.162-1.301,0.404-2.215,0.122-5.648H85.432z"/>
	<path fill="#929497" d="M93.434,170.588v5.67h2.586c0.021,1.727-0.545,3.109-1.636,4.166l1.373,1.646
		c1.758-1.687,3.354-2.967,3.88-5.812h0.041c0.161-1.301,0.403-2.216,0.121-5.67H93.434z"/>
</g>
<path fill-rule="evenodd" clip-rule="evenodd" fill="#929497" d="M186.622,180.965c-0.231,0-0.419,0.103-0.553,0.251
	c-0.173,0.193-0.213,0.418-0.165,0.67l0.224,1.167c0.038,0.2,0.158,0.363,0.331,0.438l-0.64,1.9l-2.472-5.588l-4.921,1.761
	c-1.072,0.473-2.147,1.519-2.147,2.775v0.489v0.393c0,0.497,0.407,0.904,0.904,0.904h20.965c0.497,0,0.904-0.407,0.904-0.904v-0.393
	v-0.489c0-1.257-1.076-2.303-2.148-2.775l-4.921-1.761l-2.473,5.588l-0.639-1.9c0.172-0.075,0.292-0.238,0.331-0.438l0.224-1.167
	c0.048-0.252,0.009-0.477-0.165-0.67c-0.134-0.148-0.321-0.251-0.553-0.251H186.622L186.622,180.965z M193.044,183.815h2.461
	c0.209,0,0.38,0.172,0.38,0.381v0.189c0,0.209-0.171,0.381-0.38,0.381h-2.461c-0.209,0-0.38-0.172-0.38-0.381v-0.189
	C192.664,183.987,192.835,183.815,193.044,183.815L193.044,183.815z M181.122,169.495c0.33-2.071,1.414-4.155,3.685-4.666
	c0.795-0.375,1.659-0.59,2.536-0.643c2.076-0.125,4.183,0.66,5.532,2.243c0.443,0.521,0.786,1.108,1.022,1.753
	c0.357,0.977,0.466,2.059,0.337,3.1c-0.016,0.127-0.024,0.26-0.048,0.383c0.502,0.975,0.451,2.301-0.001,3.305
	c-0.309,0.685-0.788,1.185-1.281,1.434c-1.502,4.867-8.993,4.799-10.476,0c-1.07-0.535-1.593-1.844-1.634-2.98
	c-0.019-0.525,0.052-1.092,0.268-1.584C180.998,171.053,180.997,170.282,181.122,169.495L181.122,169.495z M193.378,172.213
	c-0.243-0.037-0.481-0.147-0.687-0.28c-0.389-0.252-0.644-0.643-0.875-1.035c-0.194-0.332-0.368-0.629-0.809-0.724
	c-2.022-0.433-2.882-0.834-3.505-1.125c-0.507-0.237-0.836-0.39-1.637-0.407c-1.63-0.035-2.038,1.159-2.356,2.092
	c-0.134,0.393-0.29,1.004-0.659,1.258c-0.216,0.148-0.558,0.188-0.909,0.193c-0.162,0.369-0.194,0.863-0.182,1.204
	c0.037,1.031,0.474,1.938,1.465,2.284c0.125,0.443,0.266,0.865,0.501,1.266c1.84,3.119,7.233,2.827,8.312-1.021v-0.002l0-0.002
	l0.07-0.246c0.583-0.191,0.934-0.518,1.194-1.095C193.625,173.856,193.699,172.939,193.378,172.213L193.378,172.213z
	 M181.89,171.295c0.186-0.001,0.378-0.005,0.443-0.015c0.125-0.169,0.231-0.48,0.349-0.827c0.409-1.197,0.933-2.731,3.2-2.683
	c0.986,0.021,1.38,0.205,1.989,0.49c0.582,0.271,1.385,0.646,3.317,1.06c0.816,0.175,1.083,0.63,1.38,1.136
	c0.199,0.341,0.41,0.687,0.785,0.846c0.137-0.945,0.049-1.935-0.276-2.822c-0.267-0.729-0.696-1.369-1.263-1.899
	c-1.163-1.09-2.8-1.62-4.42-1.522c-0.693,0.041-1.383,0.199-2.021,0.473c-0.095,0.041-0.188,0.086-0.28,0.13
	c-0.17,0.036-0.337,0.079-0.501,0.139c-1.569,0.567-2.35,2.202-2.609,3.833C181.896,170.182,181.864,170.739,181.89,171.295
	L181.89,171.295z M185.538,176.302c0.65,0.021,1.295-0.219,1.777-0.656c0.121-0.11,0.234-0.23,0.349-0.348
	c0.247,0.246,0.479,0.488,0.783,0.664c0.402,0.232,0.87,0.356,1.359,0.338c0.177-0.006,0.355-0.031,0.527-0.075
	c-0.12-0.476-0.35-0.853-0.747-1.143c-0.516-0.378-1.216-0.566-1.921-0.566c-0.859,0-1.835,0.285-2.367,1.005
	c-0.135,0.217-0.237,0.456-0.301,0.705C185.174,176.269,185.357,176.296,185.538,176.302L185.538,176.302z M184.198,176.701
	c0.058-0.429,0.131-0.834,0.319-1.231c0.189-0.399,0.437-0.691,0.806-0.961c0.644-0.472,1.496-0.707,2.343-0.707
	s1.699,0.235,2.342,0.707c0.514,0.375,0.808,0.826,0.986,1.438c0.074,0.252,0.104,0.494,0.139,0.754
	c-0.465,0.178-0.906,0.312-1.409,0.314c-0.586,0.002-1.148-0.155-1.634-0.438c-0.149-0.086-0.291-0.186-0.425-0.295
	c-0.48,0.393-1.071,0.646-1.705,0.714C185.328,177.063,184.777,176.919,184.198,176.701L184.198,176.701z"/>
<path fill="#929497" d="M130.386,171.605c0.008-0.126,0.006-1.363,0.017-1.461c0.411-3.48,1.737-5.965,6.379-5.971
	c4.424,0.005,5.836,2.264,6.314,5.488c0.093,0.629,0.09,1.605,0.079,1.947c0.523,0.846,0.549,2.013,0.263,2.966
	c-0.23,0.768-0.719,1.53-1.451,1.899c-1.494,4.84-8.943,4.771-10.417,0.001c-0.159-0.079-0.307-0.181-0.442-0.295
	c-0.771-0.648-1.148-1.68-1.183-2.669C129.921,172.867,130.035,172.158,130.386,171.605L130.386,171.605z M135.74,180.994
	c-0.23,0-0.417,0.102-0.55,0.25c-0.172,0.191-0.211,0.416-0.164,0.666l0.223,1.16c0.038,0.199,0.157,0.361,0.329,0.437l-0.636,1.89
	l-2.459-5.557l-4.894,1.751c-1.066,0.47-2.135,1.51-2.135,2.76v0.486v0.39c0,0.494,0.404,0.899,0.898,0.899h20.848
	c0.494,0,0.898-0.405,0.898-0.899v-0.39v-0.486c0-1.25-1.069-2.29-2.135-2.76l-4.893-1.751l-2.459,5.557l-0.636-1.89
	c0.172-0.075,0.292-0.237,0.329-0.437l0.223-1.16c0.048-0.25,0.009-0.475-0.163-0.666c-0.133-0.148-0.32-0.25-0.551-0.25H135.74
	L135.74,180.994z M142.162,171.885c-0.135,0.195-0.193,0.523-0.334,0.609c-0.233,0.141-0.393-0.093-0.457-0.281
	c-0.11-0.319-0.253-1.057-0.325-1.251c-0.1-0.273-0.325-0.624-0.449-0.972c-0.138-0.387-0.034-0.736-0.31-1.139
	c-0.155-0.225-0.476-0.395-1.035-0.205c-0.919,0.314-4.018,0.315-4.937,0.002c-0.367-0.125-0.652-0.086-0.825,0.011
	c-0.383,0.214-0.419,0.729-0.476,1.114c-0.066,0.454-0.365,0.824-0.499,1.188c-0.072,0.194-0.214,0.932-0.324,1.251
	c-0.064,0.188-0.225,0.422-0.457,0.281c-0.135-0.081-0.223-0.393-0.359-0.596c-0.411,0.459-0.494,0.959-0.472,1.579
	c0.026,0.72,0.281,1.499,0.84,1.969c0.186,0.155,0.392,0.224,0.617,0.304c0.123,0.439,0.264,0.859,0.499,1.258
	c0.716,1.213,1.972,1.906,3.3,2.073v-0.884c0-0.81,1.227-0.81,1.227,0v0.889c1.965-0.233,3.284-1.506,3.809-3.344
	c0.717-0.234,1.101-0.717,1.319-1.441c0.212-0.704,0.229-1.602-0.177-2.215C142.289,172.01,142.229,171.947,142.162,171.885
	L142.162,171.885z M136.769,175.892c-0.845,0-1.295,0.126-1.564,0.528c-0.058,0.086-0.074,0.177-0.114,0.268
	c-0.18,0.416-0.737,0.394-0.883-0.038c-0.037-0.108-0.03-0.237-0.019-0.349c0.102-1.064,1.221-1.904,2.586-1.904
	s2.484,0.84,2.586,1.904c0.011,0.111,0.017,0.24-0.019,0.349c-0.146,0.432-0.703,0.454-0.883,0.038
	c-0.04-0.091-0.057-0.182-0.114-0.268C138.076,176.018,137.614,175.892,136.769,175.892L136.769,175.892z"/>
<path fill="#929497" d="M81.244,229.305h7.799v-11.825h-7.799V229.305z M85.567,225.787h2.289v2.288h-2.289V225.787z"/>
<path fill="#929497" d="M107.283,221.344c0-0.972-0.659-1.791-1.555-2.034c0.257-0.35,0.409-0.779,0.409-1.245
	c0-1.163-0.946-2.098-2.107-2.098h-6.734c-0.273,0-0.494-0.221-0.494-0.493c0-0.273,0.221-0.495,0.494-0.495h2.894
	c0.38-0.677,0.661-1.417,0.661-2.124c0-1.384-0.548-2.913-0.548-2.913s-0.519-1.476-1.646-1.476c-1.127,0-1.646,1.712-1.729,2.319
	c-0.251,1.862-1.607,3.633-2.448,4.639c-1.42,1.697-3.769,2.883-3.769,2.883v8.856c0,0,5.009,2.692,6.964,2.902
	c0.169,0.043,4.608,0,4.608,0c0.464,0,1.065-0.032,1.61-0.283c0.771-0.354,1.197-1.047,1.197-1.948c0-0.426-0.1-0.802-0.287-1.113
	c1.067-0.101,1.907-1.003,1.907-2.098c0-0.544-0.208-1.042-0.55-1.417C106.828,222.853,107.283,222.149,107.283,221.344z"/>
<path fill="#929497" d="M134.772,218.875c0.043,0.154,0.084,0.309,0.136,0.459c1.196,3.47,6.449,3.617,7.883,0.295
	c0.107-0.248,0.179-0.502,0.252-0.76c0.543-0.178,0.869-0.481,1.112-1.02c0.046-0.104,0.088-0.214,0.123-0.331
	c0.209-0.695,0.248-1.707-0.283-2.216c-0.261,0.07-0.297,0.59-0.477,0.699c-0.218,0.132-0.367-0.088-0.428-0.263
	c-0.103-0.3-0.125-0.919-0.191-1.102c-0.126-0.341-0.521-0.773-0.584-1.198c-0.067-0.455-0.08-0.503-0.254-0.753
	c-0.172-0.247-0.416-0.363-0.94-0.185c-0.615,0.21-1.415,0.315-2.215,0.315s-1.6-0.105-2.216-0.315
	c-0.523-0.179-0.769-0.062-0.939,0.185c-0.174,0.25-0.187,0.298-0.254,0.753c-0.063,0.425-0.458,0.857-0.584,1.198
	c-0.066,0.183-0.089,0.802-0.192,1.102c-0.06,0.175-0.209,0.395-0.428,0.263c-0.18-0.109-0.216-0.633-0.479-0.7
	c-0.354,0.325-0.422,0.974-0.405,1.446c0.025,0.674,0.262,1.402,0.786,1.844C134.375,218.742,134.558,218.8,134.772,218.875
	L134.772,218.875z M138.858,224.487c-1.747,0-3.249-0.806-3.906-1.958l-3.163,1.266c-1.172,0.47-2.653,1.588-2.653,2.999v0.455
	v0.366c0,0.463,0.379,0.841,0.842,0.841c5.921,0,11.841,0,17.762,0c0.463,0,0.842-0.378,0.842-0.841v-0.366v-0.455
	c0-1.411-1.481-2.529-2.653-2.999l-3.163-1.266C142.106,223.681,140.605,224.487,138.858,224.487L138.858,224.487z M139.396,208.037
	c0.491-0.277,0.892-0.598,1.081-1.061c0.316,0.509,0.41,1.02,0.342,1.494c2.819,0.613,3.738,2.684,4.058,5.402
	c0.009,0.068,0.01,0.736,0.013,1.116c0.496,0.792,0.521,1.891,0.252,2.786c-0.047,0.156-0.103,0.305-0.166,0.445
	c-0.287,0.637-0.733,1.103-1.192,1.334c-1.398,4.531-8.372,4.467-9.752,0c-0.149-0.074-0.287-0.169-0.415-0.275
	c-0.721-0.606-1.074-1.573-1.106-2.499c-0.022-0.61,0.087-1.256,0.413-1.781c0.014-1.69,0.214-3.478,1.284-4.87
	c0.304-0.393,0.674-0.744,1.088-1.018c1.346-0.887,3.284-1.314,3.849-2.607C139.399,207.031,139.468,207.552,139.396,208.037
	L139.396,208.037z"/>
<path fill-rule="evenodd" clip-rule="evenodd" fill="#929497" d="M189.542,224.185c-1.88,0-3.496-0.867-4.204-2.107l-3.404,1.362
	c-1.262,0.505-2.855,1.708-2.855,3.227v0.49v0.394c0,0.498,0.408,0.905,0.906,0.905c6.371,0,12.744,0,19.115,0
	c0.498,0,0.906-0.407,0.906-0.905v-0.394v-0.49c0-1.519-1.594-2.722-2.855-3.227l-3.404-1.362
	C193.038,223.317,191.421,224.185,189.542,224.185L189.542,224.185z M185.093,217.944c0.047,0.166,0.091,0.334,0.147,0.498
	c1.312,3.795,7.138,3.891,8.559,0.122c0.077-0.206,0.135-0.417,0.194-0.628c0.152-0.049,0.309-0.09,0.448-0.17
	c0.448-0.255,0.739-0.812,0.882-1.283c0.213-0.709,0.23-1.613-0.179-2.23c-0.126-0.191-0.21-0.177-0.332,0.032
	c-0.114,0.198-0.175,0.486-0.308,0.566c-0.234,0.142-0.395-0.095-0.46-0.283c-0.11-0.323-0.135-0.989-0.207-1.185
	c-0.135-0.368-0.56-0.832-0.628-1.291c-0.072-0.488-0.086-0.541-0.273-0.81c-0.185-0.266-0.447-0.392-1.012-0.198
	c-1.42,0.484-2.916,0.918-4.676,0.936c-0.829,0.01-1.152-0.11-1.585,0.654c-0.146,0.258-0.343,0.496-0.421,0.709
	c-0.071,0.195-0.096,0.861-0.207,1.185c-0.064,0.188-0.225,0.425-0.46,0.283c-0.274-0.167-0.321-1.11-0.672-0.585
	c-0.248,0.372-0.294,0.986-0.28,1.389c0.025,0.725,0.282,1.51,0.847,1.982C184.658,217.796,184.865,217.864,185.093,217.944
	L185.093,217.944z M184.294,218.675c-0.16-0.08-0.309-0.182-0.445-0.297c-0.777-0.652-1.156-1.692-1.191-2.689
	c-0.023-0.639,0.088-1.376,0.444-1.932c0.005-0.595-0.007-1.16,0.091-1.748c0.469-2.816,1.939-4.894,4.969-5.364
	c1.543-0.239,4.111-0.33,5.12,1.04c1.79,0.705,2.429,2.684,2.687,4.875c0.009,0.074,0.01,0.793,0.012,1.201
	c0.538,0.85,0.562,2.037,0.272,3c-0.232,0.773-0.724,1.542-1.462,1.914C193.286,223.552,185.78,223.482,184.294,218.675
	L184.294,218.675z"/>
<g>
	<g>
		<path fill="#A6A8AB" d="M231.139,136.623h-1.235l-2.529,2.03v-2.03h-2.603c-1.347,0-2.44-1.096-2.44-2.441v-10.665
			c0-1.347,1.094-2.441,2.44-2.441h11.517c1.346,0,2.44,1.095,2.44,2.441v2.263h1.862v-2.263c0-2.377-1.928-4.303-4.303-4.303
			h-11.517c-2.377,0-4.303,1.926-4.303,4.303v10.665c0,2.376,1.926,4.303,4.303,4.303h0.741v0.732v3.319l2.592-2.081l2.454-1.971
			h0.929c-0.223-0.503-0.349-1.057-0.349-1.642V136.623z"/>
		<path fill="#A6A8AB" d="M235.207,126.917h7.846c1.619,0,2.933,1.313,2.933,2.931v6.995c0,1.62-1.313,2.932-2.933,2.932h-0.504v0.5
			v2.261l-1.765-1.417l-1.674-1.343h-3.903c-1.617,0-2.93-1.312-2.93-2.932v-6.995C232.277,128.23,233.589,126.917,235.207,126.917z
			"/>
	</g>
</g>
<path fill-rule="evenodd" clip-rule="evenodd" fill="#A6A8AB" d="M231.744,199.409c-2.377,0-4.426-1.066-5.382-2.607l-3.816,1.682
	c-1.52,0.67-3.45,2.143-3.45,4.005v0.716v0.493c0,0.623,0.51,1.133,1.133,1.133h23.031c0.622,0,1.133-0.51,1.133-1.133v-0.493
	v-0.716c0-1.862-1.933-3.335-3.451-4.005l-3.817-1.682C236.169,198.342,234.119,199.409,231.744,199.409L231.744,199.409z
	 M233.553,190.653c0.651,0,1.209,0.41,1.425,0.986c0.547-0.03,1.089-0.134,1.612-0.303c0.935-0.301,1.8-0.809,2.514-1.487
	c0.422-0.976,0.546-2.3-0.015-3.246c-3.881,0.319-7.798-2.714-8.945-4.305c-3.196,0.276-3.02,2.53-4.608,3.544
	c-0.274,0.176-0.693,0.281-0.92,0.49c-0.47,0.43-0.554,1.398-0.53,2c0.033,0.939,0.365,1.959,1.098,2.574
	c0.242,0.203,0.512,0.293,0.807,0.396c0.061,0.217,0.118,0.435,0.192,0.647c1.66,4.801,8.89,5.039,10.957,0.512
	c-0.719,0.248-1.479,0.396-2.241,0.42c-0.254,0.482-0.762,0.812-1.345,0.812c-0.84,0-1.521-0.682-1.521-1.521
	S232.713,190.653,233.553,190.653L233.553,190.653z M223.192,186.27c-0.011-0.533-0.041-1.393,0.07-2.053
	c0.181-1.051,0.531-2.061,1.06-2.984c1.119-1.955,2.942-3.428,5.109-4.042c1.883-0.534,3.923-0.379,5.701,0.428
	c2.702,1.227,4.676,3.858,5.061,7c0.013,0.1,0.062,1.079,0.088,1.541c0.615,1.23,0.539,2.815,0.028,4.066l0.293,5.65h-4.839
	c-2.364,1.448-5.588,1.441-7.959,0.01h-4.877l0.296-5.648c-0.242-0.59-0.371-1.232-0.394-1.861
	C222.804,187.692,222.899,186.922,223.192,186.27L223.192,186.27z"/>
</svg>
